<?xml version="1.0" encoding="utf-8"?>
<!-- Generator: Adobe Illustrator 23.0.3, SVG Export Plug-In . SVG Version: 6.00 Build 0)  -->
<svg version="1.1" xmlns="http://www.w3.org/2000/svg" xmlns:xlink="http://www.w3.org/1999/xlink" x="0px" y="0px"
	 viewBox="0 0 184.5796814 90.610817" style="enable-background:new 0 0 184.5796814 90.610817;" xml:space="preserve">
<style type="text/css">
	.st1{fill:#43525A;}
	.st2{fill-rule:evenodd;clip-rule:evenodd;fill:#FFF200;}
	.st3{fill:none;stroke:#000000;stroke-width:0.5669;stroke-miterlimit:22.9255848;}
	/* Dark fill for use on white header (was white on black plate in original export) */
	.st4{fill:#1e2629;}
</style>
<g id="swoosh">
	<path class="st1" d="M151.0038757,52.6557655c0-8.8363647-21.194458-16.2816772-50.0921021-18.5675659
		c5.6638794,0.6099243,10.9728394,1.4502563,15.8118286,2.4856567c17.1222534,3.6638184,28.3411865,9.7572632,28.3411865,16.6585083
		c0,4.4945679-4.7625122,8.6461792-12.8081665,12.0086021l0.3660278,0.4436035
		c-1.9371338,1.3248901-3.3947144,1.7625732-4.0974121,1.6446533c-0.34552-0.0579834-0.5053711-0.2665405-0.5797729-0.463562
		c-12.0617676,4.0844727-29.4644775,6.6494141-48.8109131,6.6494141c-34.546627,0-62.8773193-8.1801758-65.6828613-18.5859337
		c-0.0040894,0.0965576-0.0233154,0.1919556-0.0233154,0.2888184c0,11.9038048,30.803772,21.556881,68.7876587,21.556881
		c37.9840088,0,68.7878418-9.6530762,68.7878418-21.556881C151.0038757,54.7634315,151.0038757,53.0626259,151.0038757,52.6557655z"
		/>
</g>
<g id="tennis_ball">
	
		<ellipse transform="matrix(0.3826837 -0.9238794 0.9238794 0.3826837 30.4666061 144.7630463)" class="st2" cx="123.5599442" cy="49.583271" rx="6.3065019" ry="6.3065124"/>
	<path class="st3" d="M124.2731628,43.3164711c-0.9187012,5.2537231,1.8912964,6.4290161,5.4753723,6.7578125"/>
	<path class="st3" d="M117.4416504,49.0231972c4.8980103-1.281311,7.137085,2.7923584,7.1538086,6.7005005"/>
</g>
<g id="flyball">
	<g>
		<path class="st4" d="M164.0413513,66.1204224c-0.2132568-0.0631714-0.4042358,0.0620728-0.4042358,0.0620728
			c-1.2467041,0.6844482-2.4500122,1.1334229-3.7901611,0.9574585c-1.34021-0.1759644-1.4539185-1.3997192-1.4539185-1.3997192
			s1.6795654-1.2927246,2.6547852-2.1591148c0.9752197-0.866333,3.4133911-3.8161621,2.4107056-4.0617676
			c-1.0026855-0.2455444-2.9671631,1.1050415-4.3439941,2.9121704c-1.1623535,1.5256348-1.6207886,2.742733-1.5921631,3.6842613
			c-0.9737549,0.6668701-2.8840332,1.1785889-4.0599976,1.0241699c-1.3401489-0.1759644-1.4539185-1.3997192-1.4539185-1.3997192
			s1.6796265-1.2927246,2.6548462-2.1591148c0.9751587-0.866333,3.4133911-3.8161621,2.4106445-4.0617676
			c-1.0026855-0.2455444-2.9671631,1.1050415-4.3439331,2.9121704c-1.1149292,1.4633179-1.5796509,2.6412926-1.5911255,3.5662804
			c-0.7322388,0.3264771-1.4788818,0.5360718-2.3764038,0.5246582c-0.8587036-0.0108643-0.8566284-0.6932373-0.8566284-0.6934814
			c0.2042847-0.204895,0.3045654-0.3372192,0.3045654-0.3372192c0.1253662-0.149231,0.0844116-0.2957153-0.274353-0.3283081
			c-0.3587036-0.0326538-0.5653076,0.3695679-0.887085,0.8520508s-2.3270264,1.7455444-2.8031006,1.3127441
			c-0.4760132-0.4328003,0.4334106-1.1710815,1.0390015-1.7034302s1.7380371-1.0701904,1.998291-0.907959
			s0.7181396,0.3378296,0.8703613-0.0535278c0.1521606-0.3913574-1.0001831-0.4308472-1.0001831-0.4308472
			c-0.6740112,0.0909424-1.9568481,0.5830688-2.9616699,1.5014038c-0.1987305,0.1816406-0.3619385,0.3582153-0.505249,0.5299683
			c-0.4405518,0.0601196-1.1966553,0.1108398-1.7457275-0.1419678c-0.5853271-0.2695312-0.8833008-0.871521-1.0065918-1.1923828
			l-0.0725708-0.2126465c0,0-0.1439819-0.2926636-0.4701538-0.1948242
			c-0.3261108,0.0978394-0.2705078,0.3989258-0.2705078,0.3989258s0.1157227,0.3100586,0.1351929,0.644104
			c0.0274658,0.4711914-1.5485229,1.5852661-2.6654053,1.4541016s-0.3456421-1.8634033-0.3456421-1.8634033
			s2.8991089-1.4172325,3.9438477-2.4379845c1.0447998-1.020752,2.4160156-2.6032715,1.7281494-3.2131348
			c-0.6217041-0.5511475-1.6791382-0.0758057-3.0014648,0.850647c-1.6482544,1.1548462-2.935791,3.1759033-3.4296875,4.5253868
			c-0.2351685,0.6424561-0.3449707,1.1893311-0.3375854,1.6361694c-0.9171143,0.3588257-2.479187,0.9736328-3.3662109,1.34375
			c0.6417847-1.7550659,0.8046265-3.1146851,0.6344604-3.1980591c-0.2381592-0.1166992-0.593689,0.2913208-0.9124756,0.5839844
			c-0.3188477,0.2927246-1.1045532,1.0015869-2.473999,1.4949951c-1.3693848,0.4934082-1.6276855-0.107666-1.3519897-0.4370728
			c0.2757568-0.3294067,1.3563843-1.6587524,1.0596313-1.7329712c-0.2967529-0.0741577-0.6870728,0.326416-1.1912231,0.8104858
			s-1.411377,1.7533569-3.6777344,1.7579956s-2.1812744-1.3814697-2.1812744-1.3814697
			c3.4990234-2.032711,4.6762695-4.6866417,4.9295654-5.2484703c0.2532349-0.5617676,0.2660522-1.0276489-0.0893555-0.9995117
			c-0.9043579-0.0460205-2.8939819,1.2478638-4.0661011,2.8353882c-1.1721191,1.5875854-1.7507935,2.5075035-1.7471313,3.8218956
			c0.0036621,1.3143311,1.6135864,1.6530762,3.0824585,1.5343628s3.100647-1.046875,3.100647-1.046875
			c0.0144653,0.9264526,0.890564,0.883667,2.1072388,0.4682007c1.2166138-0.4154053,2.6178589-1.3161011,2.6178589-1.3161011
			s0.1566772,0.5297241-0.2299805,1.6358032c-0.0696411,0.1992798-0.1717529,0.4470215-0.2883911,0.7127075
			c-1.0404663,0.4793091-3.2088623,1.581543-5.5287476,3.5371094c-2.3758545,2.0026855-2.5650024,2.9084473-2.2372437,3.6050415
			c0.3277588,0.6965332,1.4972534,0.7574463,2.9867554-0.1730957c1.489563-0.930603,2.9765015-2.3187866,4.4484863-5.0252075
			c0.3233643-0.5944824,0.5925293-1.1826782,0.817749-1.7427368c0.821167-0.3563232,1.7353516-0.7441406,2.309021-0.9829712
			c0.4786377-0.1992188,0.9164429-0.4447632,1.2616577-0.6583252c0.0282593,0.2356567,0.0848389,0.4465942,0.2080078,0.5978394
			c0.3553467,0.4364624,1.1122437,0.6016235,2.1929932,0.0718994c1.2491455-0.6122437,2.0565186-1.578064,2.0565186-1.578064
			s0.2592773,0.4450684,1.3518677,0.7548828c0.6072998,0.1721802,1.1734009,0.0414429,1.5626221-0.1080322
			c-0.4499512,0.6119385-0.520874,1.1160278-0.1669922,1.3312378c0.4860229,0.2955933,1.0142212,0.2044678,2.5687866-0.5673828
			c0.4946289-0.2455444,0.8954468-0.5075684,1.2247925-0.753479c0.265564,0.2313843,0.8388672,0.6535645,1.5039062,0.6556396
			c1.2341919,0.0039062,2.1851196-0.5881348,2.4874878-0.8005371c0.0111084,0.0996704,0.0222168,0.1993408,0.0447388,0.2922363
			c0.241272,0.9944458,1.1456909,1.0172729,2.173645,1.0598755c1.1743774,0.048584,3.0172729-0.576416,4.1754761-1.2914429
			c0.0107422,0.0778198,0.0175781,0.157959,0.0354614,0.2315674c0.241272,0.9944458,1.1456909,1.0172729,2.173584,1.0598755
			c1.2890015,0.0533447,3.0521851-0.4874878,4.0410156-1.2049561
			C164.0733337,66.265564,164.1635437,66.1566162,164.0413513,66.1204224z M160.2898865,62.0399818
			c1.163208-1.6202393,1.8696899-1.6878052,2.2224731-1.6846924c0.3527222,0.0031128,0.7279053,0.8283691-1.2195435,2.6462402
			c-1.9473877,1.8178673-2.4197388,1.9099083-2.8997803,2.0787315
			C158.3930359,65.0802612,159.1266785,63.6601601,160.2898865,62.0399818z M153.905304,62.0399818
			c1.163269-1.6202393,1.8696899-1.6878052,2.2224731-1.6846924s0.7279663,0.8283691-1.2194824,2.6462402
			c-1.9474487,1.8178673-2.4197998,1.9099083-2.8998413,2.0787315
			C152.0084534,65.0802612,152.7420959,63.6601601,153.905304,62.0399818z M139.7239685,61.519474
			c1.4486084-1.4376221,2.3239746-1.838501,2.5882568-1.6135864c0.2642212,0.2249146,0.3242798,1.1580811-1.4361572,2.5687866
			c-1.760376,1.4107666-2.8515015,1.6804161-3.2854004,1.7578087
			C137.5906677,64.2324829,138.2753601,62.9570961,139.7239685,61.519474z M124.4100037,62.2636147
			c1.1856079-1.647522,2.1943359-2.0089722,2.5465698-1.9083252s-0.1209717,1.5582886-1.8457031,3.1190796
			c-1.7247314,1.5607262-2.4234009,1.6058922-2.4234009,1.6058922S123.2243958,63.9111366,124.4100037,62.2636147z
			 M129.308136,72.4650879c-1.5571899,1.6174927-3.4281006,2.7001343-3.93927,2.274292
			c-0.5111694-0.4259033,0.0957031-1.4732666,1.3397217-2.7103271c1.2440186-1.2369995,3.6517334-2.6364746,4.2375488-2.9321899
			c0.1756592-0.088623,0.5135498-0.2421265,0.9169922-0.4208374
			C131.2980042,69.8391724,130.4109192,71.3196411,129.308136,72.4650879z"/>
		<path class="st4" d="M122.0817566,63.6264076v-0.3902588l-2.5140991,0.1814575
			c0.3328247-0.4250488,0.6248169-0.7981567,0.8261108-1.0543823c0.7828979-0.996582,1.1047974-2.0406494-0.0873413-2.5942993
			s-1.907959-0.6419067-3.0708618-0.6274414c-0.7362671,0.0091553-2.9324341,0.2424927-4.6829224,0.9401855
			c-1.0144653,0.4043579-2.0291138,0.9585571-2.2233887,1.7275391c-0.0358276,0.1418457,0.2106934,0.4415283,0.8171997,0.6678467
			c1.0109253,0.3771973,2.9542847,0.5272217,5.8515015-0.7376709c0.0385742-0.0168457,0.0773926-0.0339966,0.116333-0.0513306
			c0,0-2.5834351,0.394043-3.6375122,0.392395c-1.0540771-0.0015869-2.0036621-0.2092896-2.1782837-0.7560425
			c-0.1026611-0.3213501,1.104248-1.1810913,3.8120728-1.4829102c3.1867676-0.3552246,4.3556519-0.0671997,4.8770142,0.0761719
			c0.5214233,0.1433105,0.8897705,0.6472778,0.3496094,1.3345337c-0.1882324,0.239502-0.9868774,1.1590576-1.9425659,2.250061
			l-3.5814819,0.2585449l-0.2854614,0.4452477l3.484375-0.2673912c-1.7211914,1.9616051-3.7495117,4.253109-3.7495117,4.253109
			s1.4724731,0.0209351,2.5060425-1.2339478c0.4672852-0.5672607,1.5526123-1.9489746,2.4642944-3.1127892L122.0817566,63.6264076z"
			/>
	</g>
</g>
<g id="Instant_Replay">
	<g>
		<polygon class="st4" points="20.0611286,42.943119 23.7222614,42.943119 26.2271442,23.7004414 22.5660114,23.7004414 		"/>
		<polygon class="st4" points="35.0494118,34.9099159 35.0171852,34.9099159 32.1377907,23.7004414 28.7554646,23.7004414 
			26.2432575,42.943119 29.6412067,42.943119 31.0928669,31.7600117 31.1246052,31.7600117 34.0201149,42.943119 
			37.4024391,42.943119 39.9151344,23.7004414 36.5171852,23.7004414 		"/>
		<path class="st4" d="M48.4698219,42.3327675c0.7148438-0.6254883,1.2626953-1.421875,1.6430664-2.3891602
			c0.3803711-0.9667969,0.5703125-2.0102539,0.5703125-3.1303711c0-1.1899414-0.175293-2.1831055-0.5263672-2.9794922
			s-0.8032227-1.4438477-1.355957-1.942873c-0.5532227-0.4985352-1.2709961-1.027832-2.1538086-1.5878906
			c-0.6967773-0.4287109-1.1381836-0.78125-1.3242188-1.0566406c-0.1860352-0.2758789-0.2793045-0.5664062-0.2793045-0.8730469
			c0-0.4199219,0.1157303-0.7807617,0.3471756-1.0830078c0.2314453-0.3017578,0.5625-0.4526367,0.9931641-0.4526367
			c1.0581055,0,1.6245117,0.8354492,1.6992188,2.5068359l3.3818359-0.3017578
			c-0.2021484-3.7802734-1.8852539-5.6704102-5.0493164-5.6704102c-0.9995117,0-1.8574219,0.2514648-2.5722656,0.7548828
			c-0.715332,0.5029297-1.2602539,1.2094727-1.6352539,2.1196289s-0.5625,1.9165039-0.5625,3.019043
			c0,1.2075195,0.2275391,2.2402344,0.6821289,3.0976582c0.4545898,0.8579102,1.5405273,1.7939453,3.2583008,2.809082
			c0.75,0.4462891,1.2207031,0.8354492,1.4121094,1.1679688c0.1914062,0.3330078,0.2871094,0.6958008,0.2871094,1.0898438
			c0,0.5249023-0.1503906,0.9931641-0.4506836,1.4042969c-0.3007812,0.4116211-0.737793,0.6166992-1.3120117,0.6166992
			c-0.5693359,0-1.0146484-0.2470703-1.3364258-0.7412109c-0.3217773-0.4946289-0.4824219-1.3413086-0.4824219-2.5400391
			l-3.3979492,0.3803711V36.99683c0,1.8378906,0.3881836,3.3432617,1.1645508,4.515625
			c0.7763672,1.1728516,2.0922852,1.7587891,3.9482346,1.7587891C46.7374001,43.271244,47.7544899,42.9582558,48.4698219,42.3327675
			z"/>
		<polygon class="st4" points="54.4727516,42.943119 58.1021461,42.943119 60.0083961,28.4260273 63.8052711,28.4260273 
			64.4034119,23.7004414 53.3477516,23.7004414 52.7417946,28.4260273 56.3711891,28.4260273 		"/>
		<path class="st4" d="M65.1607361,42.943119l0.9091797-3.1503906h3.8129883l0.159668,3.1503906h3.5415039l-1.8583984-19.2426777
			h-3.8530273L61.2681618,42.943119H65.1607361z M69.2608337,28.7014179h0.0317383l0.3588867,7.0092793h-2.4008789
			L69.2608337,28.7014179z"/>
		<polygon class="st4" points="79.7422791,31.7600117 79.7740173,31.7600117 82.6695251,42.943119 86.0518494,42.943119 
			88.5645447,23.7004414 85.1665955,23.7004414 83.698822,34.9099159 83.6665955,34.9099159 80.7872009,23.7004414 
			77.4048767,23.7004414 74.8926697,42.943119 78.2906189,42.943119 		"/>
		<polygon class="st4" points="91.3243103,42.943119 94.9537048,42.943119 96.8599548,28.4260273 100.6568298,28.4260273 
			101.2549744,23.7004414 90.1993103,23.7004414 89.5933533,28.4260273 93.2227478,28.4260273 		"/>
		<path class="st4" d="M53.5245094,46.7307167h-6.5463867l-2.4414062,19.4746056h3.5717773l0.980957-7.9174767h0.1884766
			c0.3037109,0,0.5625,0.1328125,0.7773438,0.3984375c0.2143555,0.2661133,0.5351562,1.2333984,0.9614258,2.902832
			c0.4267578,1.6694336,0.796875,3.208004,1.1108398,4.6162071h3.7597656
			c-1.0043945-4.4633751-1.8681641-7.1909142-2.590332-8.1831017c1.2192383-0.3188477,2.1064453-1.046875,2.6611328-2.1850586
			s0.8320312-2.46875,0.8320312-3.9921875c0-1.4082031-0.2617188-2.6123047-0.7851562-3.6132812
			C55.482029,47.231205,54.6548805,46.7307167,53.5245094,46.7307167z M53.1636696,53.4855995
			c-0.1621094,0.4208984-0.409668,0.7197266-0.7416992,0.8969727c-0.3325195,0.1772461-1.0639648,0.265625-2.1938477,0.265625
			h-0.675293l0.4946289-3.972168h1.8051758c0.6489258,0,1.0703125,0.1420898,1.2636719,0.425293
			c0.1938477,0.2832031,0.2905273,0.6728516,0.2905273,1.1689453C53.4068336,52.6599159,53.325779,53.0651894,53.1636696,53.4855995
			z"/>
		<polygon class="st4" points="68.3604431,50.915287 68.886322,46.7307167 59.4825172,46.7307167 57.025486,66.2053223 
			66.9082947,66.2053223 67.4732361,61.7683144 61.1387672,61.7683144 61.6255836,57.9558144 67.245697,57.9558144 
			67.7637634,54.0105019 62.1358376,54.0105019 62.5201149,50.915287 		"/>
		<path class="st4" d="M78.5611267,47.3220253c-0.4995117-0.394043-1.2412109-0.5913086-2.2250977-0.5913086h-5.2280273
			l-2.4882812,19.4746056h3.5874023l0.8945312-7.1865196h1.578125c1.2558594,0,2.2382812-0.2480469,2.9472656-0.7441406
			s1.2978516-1.3129883,1.7661133-2.4506836c0.4682617-1.1381836,0.7026367-2.4379883,0.7026367-3.8989258
			c0-1.125-0.1308594-2.074707-0.3925781-2.8496094S79.0611267,47.7160683,78.5611267,47.3220253z M76.1827087,54.3293495
			c-0.3583984,0.5576172-0.8173828,0.8369141-1.3774414,0.8369141h-1.2011719l0.5966797-4.5830078h1.3974609
			c0.7480469,0,1.1225586,0.5844727,1.1225586,1.753418C76.7207947,53.1071815,76.5411072,53.771244,76.1827087,54.3293495z"/>
		<polygon class="st4" points="84.42099,61.4494667 86.2891541,46.7307167 82.7017517,46.7307167 80.2603455,66.2053223 
			89.5386658,66.2053223 90.127533,61.4494667 		"/>
		<path class="st4" d="M96.5640564,46.7307167l-6.4995117,19.4746056h3.8310547l0.8945312-3.1879845h3.7524414l0.1567383,3.1879845
			h3.4853516l-1.8291016-19.4746056H96.5640564z M95.95224,58.8855019l1.9780273-7.09375h0.03125l0.3530273,7.09375H95.95224z"/>
		<polygon class="st4" points="111.1861267,46.7307167 108.2110291,53.930912 106.4449158,46.7307167 102.7164001,46.7307167 
			106.1700134,58.699955 105.2203064,66.2053223 108.8077087,66.2053223 109.7261658,58.8591347 115.2676697,46.7307167 		"/>
	</g>
</g>
</svg>
